<?xml version="1.0" encoding="utf-8"?>
<!-- Generator: Adobe Illustrator 16.0.3, SVG Export Plug-In . SVG Version: 6.00 Build 0)  -->
<!DOCTYPE svg PUBLIC "-//W3C//DTD SVG 1.1//EN" "http://www.w3.org/Graphics/SVG/1.1/DTD/svg11.dtd">
<svg version="1.1" id="Capa_1" xmlns="http://www.w3.org/2000/svg" xmlns:xlink="http://www.w3.org/1999/xlink" x="0px" y="0px"
	 width="347.958px" height="347.958px" viewBox="0 0 347.958 347.958" enable-background="new 0 0 347.958 347.958"
	 xml:space="preserve">
<circle opacity="0.5" fill="none" stroke="#FFFFFF" stroke-width="8" stroke-linejoin="round" stroke-miterlimit="10" stroke-dasharray="10,12" enable-background="new    " cx="173.979" cy="173.978" r="169.979"/>
<g>
	
		<path fill="none" stroke="#FFFFFF" stroke-width="6" stroke-linecap="round" stroke-linejoin="round" stroke-miterlimit="10" stroke-dasharray="1,10" d="
		M83.926,242.949c0,0,35.292,45.761,79.169,18.522c43.876-27.24,7.826-98.245,7.826-98.245s-27.434-89.151,55.253-95.753
		c55.876,3.166,54.449,63.691,54.449,63.691"/>
	<path fill="none" stroke="#FFFFFF" stroke-width="3" stroke-linecap="round" stroke-linejoin="round" stroke-miterlimit="10" d="
		M87.372,215.456c6.208,9.999,3.135,23.138-6.869,29.345c-9.998,6.205-23.137,3.134-29.341-6.863
		c-6.21-10.001-3.136-23.139,6.863-29.347C68.025,202.382,81.164,205.457,87.372,215.456z"/>
	
		<polygon fill="none" stroke="#FFFFFF" stroke-width="3" stroke-linecap="round" stroke-linejoin="round" stroke-miterlimit="10" points="
		306.453,127.011 287.958,154.85 259.471,135.922 	"/>
</g>
</svg>
