<?xml version="1.0" encoding="utf-8"?>
<!-- Generator: Adobe Illustrator 16.0.3, SVG Export Plug-In . SVG Version: 6.00 Build 0)  -->
<!DOCTYPE svg PUBLIC "-//W3C//DTD SVG 1.1//EN" "http://www.w3.org/Graphics/SVG/1.1/DTD/svg11.dtd">
<svg version="1.1" id="Capa_1" xmlns="http://www.w3.org/2000/svg" xmlns:xlink="http://www.w3.org/1999/xlink" x="0px" y="0px"
	 width="347.958px" height="347.958px" viewBox="0 0 347.958 347.958" enable-background="new 0 0 347.958 347.958"
	 xml:space="preserve">
<circle opacity="0.5" fill="none" stroke="#FFFFFF" stroke-width="8" stroke-linejoin="round" stroke-miterlimit="10" stroke-dasharray="10,12" enable-background="new    " cx="173.979" cy="173.978" r="169.979"/>
<g>
	
		<circle opacity="0.75" fill="none" stroke="#FFFFFF" stroke-width="6" stroke-linecap="round" stroke-linejoin="round" stroke-miterlimit="10" cx="172.904" cy="176.668" r="96.12"/>
	<g>
		
			<path fill="none" stroke="#FFFFFF" stroke-width="6" stroke-linecap="round" stroke-linejoin="round" stroke-miterlimit="10" stroke-dasharray="1,10" d="
			M195.053,74.916c3.109,12.235-4.283,24.672-16.514,27.783c-12.236,3.111-24.675-4.283-27.785-16.516
			c-3.11-12.235,4.282-24.672,16.519-27.783C179.506,55.288,191.944,62.681,195.053,74.916z"/>
	</g>
	<g>
		
			<path fill="none" stroke="#FFFFFF" stroke-width="6" stroke-linecap="round" stroke-linejoin="round" stroke-miterlimit="10" stroke-dasharray="1,10" d="
			M112.467,220.66c3.11,12.235-4.282,24.672-16.514,27.782c-12.236,3.111-24.675-4.283-27.785-16.516
			c-3.11-12.234,4.282-24.673,16.519-27.784C96.92,201.031,109.358,208.425,112.467,220.66z"/>
	</g>
	<g>
		
			<path fill="none" stroke="#FFFFFF" stroke-width="6" stroke-linecap="round" stroke-linejoin="round" stroke-miterlimit="10" stroke-dasharray="1,10" d="
			M278.403,219.792c3.109,12.235-4.283,24.672-16.514,27.782c-12.236,3.111-24.675-4.283-27.786-16.516
			c-3.109-12.234,4.283-24.673,16.52-27.784C262.855,200.163,275.293,207.557,278.403,219.792z"/>
	</g>
</g>
</svg>
