<?xml version="1.0" encoding="utf-8"?>
<!-- Generator: Adobe Illustrator 16.0.3, SVG Export Plug-In . SVG Version: 6.00 Build 0)  -->
<!DOCTYPE svg PUBLIC "-//W3C//DTD SVG 1.1//EN" "http://www.w3.org/Graphics/SVG/1.1/DTD/svg11.dtd">
<svg version="1.1" id="Capa_1" xmlns="http://www.w3.org/2000/svg" xmlns:xlink="http://www.w3.org/1999/xlink" x="0px" y="0px"
	 width="347.958px" height="347.958px" viewBox="0 0 347.958 347.958" enable-background="new 0 0 347.958 347.958"
	 xml:space="preserve">
<circle opacity="0.5" fill="none" stroke="#FFFFFF" stroke-width="8" stroke-linejoin="round" stroke-miterlimit="10" stroke-dasharray="10,12" cx="173.979" cy="173.978" r="169.979"/>
<g>
	<polygon fill="none" stroke="#FFFFFF" stroke-width="6" stroke-miterlimit="10" points="155.511,75.979 174.499,43.091 
		193.487,75.979 	"/>
	
		<path opacity="0.8" fill="none" stroke="#FFFFFF" stroke-width="6" stroke-linecap="round" stroke-linejoin="round" stroke-miterlimit="10" stroke-dasharray="1,10" d="
		M221.484,189.777c0,25.95-21.037,46.981-46.984,46.981c-25.948,0-46.982-21.031-46.982-46.981
		c0-25.946,21.034-46.981,46.982-46.981C200.447,142.796,221.484,163.831,221.484,189.777z"/>
	<polyline opacity="0.8" fill="none" stroke="#FFFFFF" stroke-width="6" stroke-miterlimit="10" points="172.979,72.979 
		172.979,279.979 151.979,279.979 	"/>
	<polygon fill="none" stroke="#FFFFFF" stroke-width="6" stroke-miterlimit="10" points="149.979,300.377 117.091,281.388 
		149.979,262.402 	"/>
	<polyline fill="none" stroke="#FFFFFF" stroke-width="6" stroke-miterlimit="10" points="172.979,110.979 264.979,110.979 
		264.979,160.979 	"/>
	<polygon opacity="0.8" fill="none" stroke="#FFFFFF" stroke-width="6" stroke-miterlimit="10" points="285.104,161.979 
		266.116,194.867 247.128,161.979 	"/>
	<polyline fill="none" stroke="#FFFFFF" stroke-width="6" stroke-miterlimit="10" points="175.979,188.979 81.979,188.979 
		81.979,136.979 	"/>
	<polygon opacity="0.8" fill="none" stroke="#FFFFFF" stroke-width="6" stroke-miterlimit="10" points="63.896,139.979 
		82.884,107.091 101.872,139.979 	"/>
</g>
</svg>
