<?xml version="1.0" encoding="utf-8"?>
<!-- Generator: Adobe Illustrator 16.0.3, SVG Export Plug-In . SVG Version: 6.00 Build 0)  -->
<!DOCTYPE svg PUBLIC "-//W3C//DTD SVG 1.1//EN" "http://www.w3.org/Graphics/SVG/1.1/DTD/svg11.dtd">
<svg version="1.1" id="Capa_1" xmlns="http://www.w3.org/2000/svg" xmlns:xlink="http://www.w3.org/1999/xlink" x="0px" y="0px"
	 width="347.958px" height="347.958px" viewBox="0 0 347.958 347.958" enable-background="new 0 0 347.958 347.958"
	 xml:space="preserve">
<circle opacity="0.5" fill="none" stroke="#FFFFFF" stroke-width="8" stroke-linejoin="round" stroke-miterlimit="10" stroke-dasharray="10,12" cx="173.979" cy="173.978" r="169.979"/>
<g>
	
		<path opacity="0.6" fill="none" stroke="#FFFFFF" stroke-width="6" stroke-linecap="round" stroke-linejoin="round" stroke-miterlimit="10" stroke-dasharray="1,10" d="
		M60.651,209.993c0,0,20.617-86.859,103.479-82.355c82.218,4.266,98.092,88.56,98.092,88.56"/>
	
		<rect x="50.286" y="145.247" transform="matrix(0.1469 0.9891 -0.9891 0.1469 244.5154 69.2757)" opacity="0.55" fill="none" stroke="#FFFFFF" stroke-width="6" stroke-miterlimit="10" width="63.618" height="62.295"/>
	<polygon opacity="0.65" fill="none" stroke="#FFFFFF" stroke-width="6" stroke-miterlimit="10" points="88.147,165.516 
		94.072,102.173 147.619,115.835 150.169,171.318 	"/>
	<polygon opacity="0.75" fill="none" stroke="#FFFFFF" stroke-width="6" stroke-miterlimit="10" points="132.981,111.963 
		187.556,79.271 197.309,130.809 164.99,165.403 	"/>
	<polygon opacity="0.85" fill="none" stroke="#FFFFFF" stroke-width="6" stroke-miterlimit="10" points="188.481,114.767 
		252.014,118.155 226.141,157.538 185.164,176.972 	"/>
	<polygon opacity="0.95" fill="none" stroke="#FFFFFF" stroke-width="6" stroke-miterlimit="10" points="228.453,140.1 
		286.529,166.07 245.398,185.54 203.022,196.965 	"/>
	<polygon fill="none" stroke="#FFFFFF" stroke-width="6" stroke-miterlimit="10" points="253.863,171.437 299.245,216.024 
		257.117,215.42 210.202,215.865 	"/>
</g>
</svg>
